<svg width="100" height="100" viewBox="0 0 100 100" xmlns="http://www.w3.org/2000/svg">
  <defs>
    <linearGradient id="greenGradient" x1="0%" y1="0%" x2="100%" y2="0%">
      <stop offset="0%" stop-color="#A1F2C0" />
      <stop offset="100%" stop-color="#3CBF9B" />
    </linearGradient>
  </defs>

  <!-- Gradient background circle (no border/stroke) -->
  <circle cx="50" cy="50" r="45" fill="url(#greenGradient)" />

  <!-- Document and icons -->
  <g fill="none" stroke="#ffffff" stroke-width="4" stroke-linecap="round" stroke-linejoin="round">
    <!-- Document -->
    <rect x="30" y="30" width="40" height="40" rx="4" />

    <!-- Chat bubbles -->
    <path d="M36 38 h8 a2 2 0 0 1 2 2 v4 a2 2 0 0 1 -2 2 h-2 l-2 2 v-2 h-4 a2 2 0 0 1 -2 -2 v-4 a2 2 0 0 1 2 -2 z" />
    <path d="M52 38 h8 a2 2 0 0 1 2 2 v4 a2 2 0 0 1 -2 2 h-2 l-2 2 v-2 h-4 a2 2 0 0 1 -2 -2 v-4 a2 2 0 0 1 2 -2 z" />

    <!-- Clock -->
    <circle cx="50" cy="60" r="6" />
    <line x1="50" y1="60" x2="50" y2="57" />
    <line x1="50" y1="60" x2="53" y2="61" />
  </g>
</svg>